<mxfile host="app.diagrams.net" modified="2020-04-16T02:30:41.342Z" agent="5.0 (Windows NT 10.0; WOW64) AppleWebKit/537.36 (KHTML, like Gecko) Chrome/76.0.3809.87 Safari/537.36" etag="peZGugYVQufxh2HWPLtZ" version="12.9.11" type="github">
  <diagram id="tO8i76VYxkzLbFmGI1uG" name="第 1 页">
    <mxGraphModel dx="2249" dy="1931" grid="1" gridSize="10" guides="1" tooltips="1" connect="1" arrows="1" fold="1" page="1" pageScale="1" pageWidth="827" pageHeight="1169" math="0" shadow="0">
      <root>
        <mxCell id="0" />
        <mxCell id="1" parent="0" />
        <mxCell id="JRZBxJg1t3arL7Jp7y_G-20" value="" style="edgeStyle=orthogonalEdgeStyle;rounded=0;orthogonalLoop=1;jettySize=auto;html=1;entryX=0;entryY=0.5;entryDx=0;entryDy=0;" edge="1" parent="1" source="JRZBxJg1t3arL7Jp7y_G-1" target="JRZBxJg1t3arL7Jp7y_G-21">
          <mxGeometry relative="1" as="geometry">
            <mxPoint x="350" y="100" as="targetPoint" />
          </mxGeometry>
        </mxCell>
        <mxCell id="JRZBxJg1t3arL7Jp7y_G-1" value="List" style="rounded=0;whiteSpace=wrap;html=1;" vertex="1" parent="1">
          <mxGeometry x="150" y="70" width="120" height="60" as="geometry" />
        </mxCell>
        <mxCell id="JRZBxJg1t3arL7Jp7y_G-2" value="Map" style="rounded=0;whiteSpace=wrap;html=1;" vertex="1" parent="1">
          <mxGeometry x="150" y="140" width="120" height="60" as="geometry" />
        </mxCell>
        <mxCell id="JRZBxJg1t3arL7Jp7y_G-15" style="edgeStyle=orthogonalEdgeStyle;rounded=0;orthogonalLoop=1;jettySize=auto;html=1;entryX=0;entryY=0.5;entryDx=0;entryDy=0;" edge="1" parent="1" source="JRZBxJg1t3arL7Jp7y_G-3" target="JRZBxJg1t3arL7Jp7y_G-16">
          <mxGeometry relative="1" as="geometry">
            <mxPoint x="360" y="230" as="targetPoint" />
          </mxGeometry>
        </mxCell>
        <mxCell id="JRZBxJg1t3arL7Jp7y_G-3" value="set" style="rounded=0;whiteSpace=wrap;html=1;" vertex="1" parent="1">
          <mxGeometry x="150" y="210" width="120" height="60" as="geometry" />
        </mxCell>
        <mxCell id="JRZBxJg1t3arL7Jp7y_G-4" value="sortedset" style="rounded=0;whiteSpace=wrap;html=1;" vertex="1" parent="1">
          <mxGeometry x="150" y="280" width="120" height="60" as="geometry" />
        </mxCell>
        <mxCell id="JRZBxJg1t3arL7Jp7y_G-5" value="" style="shape=curlyBracket;whiteSpace=wrap;html=1;rounded=1;size=0;" vertex="1" parent="1">
          <mxGeometry x="120" y="70" width="20" height="350" as="geometry" />
        </mxCell>
        <mxCell id="JRZBxJg1t3arL7Jp7y_G-8" value="提供给了 redis 对应的所有集合的操作，和锁的机制" style="rounded=0;whiteSpace=wrap;html=1;" vertex="1" parent="1">
          <mxGeometry x="100" y="440" width="190" height="235" as="geometry" />
        </mxCell>
        <mxCell id="JRZBxJg1t3arL7Jp7y_G-14" style="edgeStyle=orthogonalEdgeStyle;rounded=0;orthogonalLoop=1;jettySize=auto;html=1;entryX=0.05;entryY=0.426;entryDx=0;entryDy=0;entryPerimeter=0;" edge="1" parent="1" source="JRZBxJg1t3arL7Jp7y_G-9" target="JRZBxJg1t3arL7Jp7y_G-5">
          <mxGeometry relative="1" as="geometry">
            <mxPoint x="110" y="230" as="targetPoint" />
          </mxGeometry>
        </mxCell>
        <mxCell id="JRZBxJg1t3arL7Jp7y_G-9" value="Actor" style="shape=umlActor;verticalLabelPosition=bottom;labelBackgroundColor=#ffffff;verticalAlign=top;html=1;outlineConnect=0;" vertex="1" parent="1">
          <mxGeometry x="-60" y="190" width="30" height="60" as="geometry" />
        </mxCell>
        <mxCell id="JRZBxJg1t3arL7Jp7y_G-11" value="Lock" style="rounded=0;whiteSpace=wrap;html=1;" vertex="1" parent="1">
          <mxGeometry x="150" y="360" width="120" height="60" as="geometry" />
        </mxCell>
        <mxCell id="JRZBxJg1t3arL7Jp7y_G-16" value="对集合的所有操作通过channel 对redis 进行通信" style="rounded=0;whiteSpace=wrap;html=1;" vertex="1" parent="1">
          <mxGeometry x="420" y="300" width="190" height="235" as="geometry" />
        </mxCell>
        <mxCell id="JRZBxJg1t3arL7Jp7y_G-23" style="edgeStyle=orthogonalEdgeStyle;rounded=0;orthogonalLoop=1;jettySize=auto;html=1;entryX=0;entryY=0.5;entryDx=0;entryDy=0;" edge="1" parent="1" source="JRZBxJg1t3arL7Jp7y_G-21" target="JRZBxJg1t3arL7Jp7y_G-25">
          <mxGeometry relative="1" as="geometry">
            <mxPoint x="520" y="100" as="targetPoint" />
          </mxGeometry>
        </mxCell>
        <mxCell id="JRZBxJg1t3arL7Jp7y_G-21" value="isExit" style="rhombus;whiteSpace=wrap;html=1;" vertex="1" parent="1">
          <mxGeometry x="360" y="60" width="80" height="80" as="geometry" />
        </mxCell>
        <mxCell id="JRZBxJg1t3arL7Jp7y_G-29" value="" style="edgeStyle=orthogonalEdgeStyle;rounded=0;orthogonalLoop=1;jettySize=auto;html=1;" edge="1" parent="1" source="JRZBxJg1t3arL7Jp7y_G-25" target="JRZBxJg1t3arL7Jp7y_G-28">
          <mxGeometry relative="1" as="geometry" />
        </mxCell>
        <mxCell id="JRZBxJg1t3arL7Jp7y_G-32" value="" style="edgeStyle=orthogonalEdgeStyle;rounded=0;orthogonalLoop=1;jettySize=auto;html=1;" edge="1" parent="1" source="JRZBxJg1t3arL7Jp7y_G-25" target="JRZBxJg1t3arL7Jp7y_G-31">
          <mxGeometry relative="1" as="geometry" />
        </mxCell>
        <mxCell id="JRZBxJg1t3arL7Jp7y_G-25" value="&lt;pre style=&quot;font-family: &amp;#34;consolas&amp;#34; ; font-size: 12pt&quot;&gt;ConnectionManager.&lt;br&gt;executor 去执行异步read&lt;/pre&gt;&lt;pre style=&quot;font-family: &amp;#34;consolas&amp;#34; ; font-size: 12pt&quot;&gt;commandAsyncService&lt;/pre&gt;&lt;pre style=&quot;font-family: &amp;#34;consolas&amp;#34; ; font-size: 12pt&quot;&gt;337&lt;/pre&gt;" style="rounded=0;whiteSpace=wrap;html=1;" vertex="1" parent="1">
          <mxGeometry x="450" y="35" width="200" height="130" as="geometry" />
        </mxCell>
        <mxCell id="JRZBxJg1t3arL7Jp7y_G-31" value="&lt;pre style=&quot;font-family: &amp;#34;consolas&amp;#34; ; font-size: 12pt&quot;&gt;参数边引用&lt;/pre&gt;" style="rounded=0;whiteSpace=wrap;html=1;" vertex="1" parent="1">
          <mxGeometry x="720" y="70" width="190" height="60" as="geometry" />
        </mxCell>
        <mxCell id="JRZBxJg1t3arL7Jp7y_G-28" value="&lt;pre style=&quot;font-family: &amp;#34;consolas&amp;#34; ; font-size: 12pt&quot;&gt;使用masterslave 不会根据&lt;br/&gt;环形一致性哈希去name的&lt;br/&gt;solt的位置，直接放回的0&lt;/pre&gt;" style="rounded=0;whiteSpace=wrap;html=1;" vertex="1" parent="1">
          <mxGeometry x="455" y="-70" width="190" height="60" as="geometry" />
        </mxCell>
      </root>
    </mxGraphModel>
  </diagram>
</mxfile>
